<svg width="16" height="13" viewBox="0 0 16 13" fill="none" xmlns="http://www.w3.org/2000/svg">
<path d="M5.13015 9.39675L13.5965 0.930414C13.8596 0.667336 14.1944 0.535797 14.601 0.535797C15.0075 0.535797 15.3424 0.667336 15.6054 0.930414C15.8685 1.19349 16.0001 1.52832 16.0001 1.93489C16.0001 2.34147 15.8685 2.6763 15.6054 2.93937L6.13462 12.4102C5.84763 12.6972 5.5128 12.8407 5.13015 12.8407C4.74749 12.8407 4.41266 12.6972 4.12567 12.4102L0.394739 8.67926C0.131661 8.41618 0.00012207 8.08136 0.00012207 7.67478C0.00012207 7.2682 0.131661 6.93338 0.394739 6.6703C0.657817 6.40722 0.992644 6.27568 1.39922 6.27568C1.80579 6.27568 2.14062 6.40722 2.4037 6.6703L5.13015 9.39675Z" fill="#292D32"/>
</svg>
